<svg width="300" height="300" viewBox="0 0 300 300" fill="none" xmlns="http://www.w3.org/2000/svg">
<rect width="300" height="300" fill="#F5F5F5"/>
<rect x="10" y="10" width="280" height="280" fill="none" stroke="#CCCCCC" stroke-width="2" stroke-dasharray="5 5"/>
<svg x="90" y="90" width="120" height="120" viewBox="0 0 24 24" fill="#CCCCCC">
<path d="M19 3H5C3.9 3 3 3.9 3 5V19C3 20.1 3.9 21 5 21H19C20.1 21 21 20.1 21 19V5C21 3.9 20.1 3 19 3ZM9 12C10.1 12 11 11.1 11 10C11 8.9 10.1 8 9 8C7.9 8 7 8.9 7 10C7 11.1 7.9 12 9 12ZM19 19H5V17L7 13L10 17L14 14L19 19Z"/>
</svg>
<text x="150" y="240" font-family="Arial, sans-serif" font-size="16" fill="#999999" text-anchor="middle">Placeholder Image</text>
</svg>
