<svg xmlns="http://www.w3.org/2000/svg" width="135" height="40" viewBox="0 0 135 40">
  <defs>
    <linearGradient id="appStoreGrad" x1="0%" y1="0%" x2="0%" y2="100%">
      <stop offset="0%" style="stop-color:#333"/>
      <stop offset="100%" style="stop-color:#000"/>
    </linearGradient>
    <filter id="appShadow" x="-10%" y="-10%" width="120%" height="120%">
      <feDropShadow dx="0" dy="2" stdDeviation="2" flood-color="rgba(0,0,0,0.3)"/>
    </filter>
  </defs>
  <rect width="135" height="40" fill="url(#appStoreGrad)" rx="6" filter="url(#appShadow)"/>
  <rect x="0.5" y="0.5" width="134" height="39" fill="none" stroke="rgba(255,255,255,0.1)" stroke-width="1" rx="5.5"/>
  
  <!-- Apple logo -->
  <path d="M 25 8 C 23 8 21 10 21 13 C 21 16 23 18 25 18 C 27 18 29 16 29 13 C 29 10 27 8 25 8 Z" fill="white"/>
  <path d="M 27 8 C 27.5 7 28 6 28 5 C 27 5.2 26 6 25.5 7 C 25 8 25.5 9 27 8 Z" fill="white"/>
  
  <!-- Text -->
  <text x="40" y="14" font-family="Arial, sans-serif" font-size="9" fill="white">Download on the</text>
  <text x="40" y="26" font-family="Arial, sans-serif" font-size="16" font-weight="bold" fill="white">App Store</text>
  
  <!-- Registered trademark -->
  <circle cx="125" cy="12" r="4" fill="none" stroke="white" stroke-width="0.5"/>
  <text x="125" y="14" font-family="Arial, sans-serif" font-size="4" fill="white" text-anchor="middle">®</text>
</svg>