<svg xmlns="http://www.w3.org/2000/svg" width="80" height="80" viewBox="0 0 80 80">
  <defs>
    <filter id="qrShadow" x="-10%" y="-10%" width="120%" height="120%">
      <feDropShadow dx="0" dy="2" stdDeviation="2" flood-color="rgba(0,0,0,0.1)"/>
    </filter>
  </defs>
  <rect width="80" height="80" fill="white" stroke="#e0e0e0" stroke-width="1" rx="4" filter="url(#qrShadow)"/>
  
  <!-- Top-left finder pattern -->
  <rect x="4" y="4" width="21" height="21" fill="black"/>
  <rect x="6" y="6" width="17" height="17" fill="white"/>
  <rect x="8" y="8" width="13" height="13" fill="black"/>
  <rect x="10" y="10" width="9" height="9" fill="white"/>
  <rect x="12" y="12" width="5" height="5" fill="black"/>
  
  <!-- Top-right finder pattern -->
  <rect x="55" y="4" width="21" height="21" fill="black"/>
  <rect x="57" y="6" width="17" height="17" fill="white"/>
  <rect x="59" y="8" width="13" height="13" fill="black"/>
  <rect x="61" y="10" width="9" height="9" fill="white"/>
  <rect x="63" y="12" width="5" height="5" fill="black"/>
  
  <!-- Bottom-left finder pattern -->
  <rect x="4" y="55" width="21" height="21" fill="black"/>
  <rect x="6" y="57" width="17" height="17" fill="white"/>
  <rect x="8" y="59" width="13" height="13" fill="black"/>
  <rect x="10" y="61" width="9" height="9" fill="white"/>
  <rect x="12" y="63" width="5" height="5" fill="black"/>
  
  <!-- Timing patterns -->
  <rect x="27" y="6" width="2" height="2" fill="black"/>
  <rect x="31" y="6" width="2" height="2" fill="black"/>
  <rect x="35" y="6" width="2" height="2" fill="black"/>
  <rect x="39" y="6" width="2" height="2" fill="black"/>
  <rect x="43" y="6" width="2" height="2" fill="black"/>
  <rect x="47" y="6" width="2" height="2" fill="black"/>
  <rect x="51" y="6" width="2" height="2" fill="black"/>
  
  <rect x="6" y="27" width="2" height="2" fill="black"/>
  <rect x="6" y="31" width="2" height="2" fill="black"/>
  <rect x="6" y="35" width="2" height="2" fill="black"/>
  <rect x="6" y="39" width="2" height="2" fill="black"/>
  <rect x="6" y="43" width="2" height="2" fill="black"/>
  <rect x="6" y="47" width="2" height="2" fill="black"/>
  <rect x="6" y="51" width="2" height="2" fill="black"/>
  
  <!-- Data modules (random pattern) -->
  <rect x="27" y="27" width="2" height="2" fill="black"/>
  <rect x="31" y="27" width="2" height="2" fill="black"/>
  <rect x="35" y="29" width="2" height="2" fill="black"/>
  <rect x="39" y="27" width="2" height="2" fill="black"/>
  <rect x="43" y="29" width="2" height="2" fill="black"/>
  <rect x="47" y="27" width="2" height="2" fill="black"/>
  
  <rect x="27" y="31" width="2" height="2" fill="black"/>
  <rect x="33" y="31" width="2" height="2" fill="black"/>
  <rect x="37" y="33" width="2" height="2" fill="black"/>
  <rect x="41" y="31" width="2" height="2" fill="black"/>
  <rect x="45" y="33" width="2" height="2" fill="black"/>
  <rect x="49" y="31" width="2" height="2" fill="black"/>
  
  <!-- More data patterns -->
  <rect x="55" y="27" width="2" height="2" fill="black"/>
  <rect x="59" y="29" width="2" height="2" fill="black"/>
  <rect x="63" y="27" width="2" height="2" fill="black"/>
  <rect x="67" y="29" width="2" height="2" fill="black"/>
  <rect x="71" y="27" width="2" height="2" fill="black"/>
  
  <rect x="27" y="55" width="2" height="2" fill="black"/>
  <rect x="31" y="57" width="2" height="2" fill="black"/>
  <rect x="35" y="55" width="2" height="2" fill="black"/>
  <rect x="39" y="57" width="2" height="2" fill="black"/>
  <rect x="43" y="55" width="2" height="2" fill="black"/>
  
  <!-- Alignment pattern -->
  <rect x="55" y="55" width="9" height="9" fill="black"/>
  <rect x="57" y="57" width="5" height="5" fill="white"/>
  <rect x="59" y="59" width="1" height="1" fill="black"/>
</svg>